<svg xmlns="http://www.w3.org/2000/svg" viewBox="0 0 1600 900" role="img" aria-label="Mock top-down de agroglifo espiral">
  <defs>
    <linearGradient id="soilC" x1="0" y1="0" x2="1" y2="1">
      <stop offset="0%" stop-color="#7d6b49"/>
      <stop offset="100%" stop-color="#4d3f2c"/>
    </linearGradient>
    <pattern id="furrowC" width="18" height="18" patternUnits="userSpaceOnUse" patternTransform="rotate(18)">
      <path d="M0 9h18" stroke="rgba(255,255,255,0.07)" stroke-width="1"/>
    </pattern>
    <radialGradient id="lightC" cx="52%" cy="32%" r="66%">
      <stop offset="0%" stop-color="rgba(255,255,255,0.18)"/>
      <stop offset="100%" stop-color="rgba(255,255,255,0)"/>
    </radialGradient>
  </defs>
  <rect width="1600" height="900" fill="url(#soilC)"/>
  <rect width="1600" height="900" fill="url(#furrowC)" opacity="0.7"/>
  <g opacity="0.78" fill="none" stroke="#efe1b9">
    <path d="M812 456c128 0 210 98 210 194 0 95-77 167-170 167-95 0-170-77-170-170 0-95 80-176 183-176 109 0 197 89 197 198" stroke-width="7"/>
    <circle cx="812" cy="456" r="248" stroke-width="5"/>
    <circle cx="812" cy="456" r="52" stroke-width="4"/>
  </g>
  <g opacity="0.28" stroke="#fff6dd" fill="none" stroke-width="2">
    <circle cx="812" cy="456" r="300" stroke-dasharray="7 9"/>
    <path d="M520 456h584" stroke-dasharray="8 7"/>
  </g>
  <rect width="1600" height="900" fill="url(#lightC)"/>
</svg>
